<svg width="1280" height="493" xmlns="http://www.w3.org/2000/svg" xmlns:xlink="http://www.w3.org/1999/xlink" overflow="hidden"><g><rect x="0" y="0" width="1280" height="492.833" fill="#FFFFFF"/><path d="M71 315.735C70.8111 171.362 187.735 54.1708 332.158 53.982 476.58 53.7932 593.811 170.678 594 315.052 594 315.229 594 315.406 594 315.584L332.5 315.393Z" stroke="#000000" stroke-width="2" stroke-miterlimit="8" fill="#FFFFFF" fill-rule="evenodd"/><rect x="59" y="314.894" width="547" height="121.959" stroke="#000000" stroke-width="2" stroke-miterlimit="8" fill="#595959"/><path d="M292 375.873C292 353.237 310.356 334.887 333 334.887 355.644 334.887 374 353.237 374 375.873 374 398.509 355.644 416.859 333 416.859 310.356 416.859 292 398.509 292 375.873Z" stroke="#000000" stroke-width="2" stroke-miterlimit="8" fill="#4EA72E" fill-rule="evenodd"/><path d="M300 375.373C300 357.43 314.551 342.884 332.5 342.884 350.449 342.884 365 357.43 365 375.373 365 393.316 350.449 407.862 332.5 407.862 314.551 407.862 300 393.316 300 375.373Z" fill-rule="evenodd"/><text font-family="Arial,Arial_MSFontService,sans-serif" font-weight="400" font-size="23.9919" transform="matrix(1 0 0 0.999662 168.826 94)">1</text><text font-family="Arial,Arial_MSFontService,sans-serif" font-weight="400" font-size="23.9919" transform="matrix(1 0 0 0.999662 37.3878 390)">2</text><text fill="#FFFFFF" font-family="Arial,Arial_MSFontService,sans-serif" font-weight="400" font-size="23.9919" transform="matrix(1 0 0 0.999662 277.53 356)">3</text><text fill="#FFFFFF" font-family="Arial,Arial_MSFontService,sans-serif" font-weight="400" font-size="23.9919" transform="matrix(1 0 0 0.999662 326.076 385)">4</text><path d="M706 314.736C705.811 170.362 822.735 53.1712 967.158 52.9823 1111.58 52.7935 1228.81 169.678 1229 314.052 1229 314.229 1229 314.407 1229 314.584L967.5 314.394Z" stroke="#000000" stroke-width="2" stroke-miterlimit="8" fill="#FFFFFF" fill-rule="evenodd"/><rect x="694" y="313.894" width="547" height="121.959" stroke="#000000" stroke-width="2" stroke-miterlimit="8" fill="#595959"/><path d="M953 378.372C953 370.367 959.492 363.877 967.5 363.877 975.508 363.877 982 370.367 982 378.372 982 386.378 975.508 392.867 967.5 392.867 959.492 392.867 953 386.378 953 378.372Z" stroke="#000000" stroke-width="2" stroke-miterlimit="8" fill="#D1D1D1" fill-rule="evenodd"/><path d="M961 378.372C961 374.783 963.91 371.874 967.5 371.874 971.09 371.874 974 374.783 974 378.372 974 381.961 971.09 384.87 967.5 384.87 963.91 384.87 961 381.961 961 378.372Z" fill-rule="evenodd"/><path d="M857 397.865C857 392.345 861.477 387.869 867 387.869L907 387.869C912.523 387.869 917 392.345 917 397.865L917 397.865C917 403.386 912.523 407.862 907 407.862L867 407.862C861.477 407.862 857 403.386 857 397.865Z" stroke="#000000" stroke-width="2" stroke-miterlimit="8" fill="#D1D1D1" fill-rule="evenodd"/><path d="M861 395.866C861 395.314 861.448 394.867 862 394.867L912 394.867C912.552 394.867 913 395.314 913 395.866L913 399.865C913 400.417 912.552 400.865 912 400.865L862 400.865C861.448 400.865 861 400.417 861 399.865Z" fill-rule="evenodd"/><text fill="#FFFFFF" font-family="Arial,Arial_MSFontService,sans-serif" font-weight="400" font-size="23.9919" transform="matrix(1 0 0 0.999662 837.611 406)">5</text><text fill="#FFFFFF" font-family="Arial,Arial_MSFontService,sans-serif" font-weight="400" font-size="23.9919" transform="matrix(1 0 0 0.999662 990.887 386)">6</text><text font-family="Arial,Arial_MSFontService,sans-serif" font-weight="400" font-size="23.9919" transform="matrix(1 0 0 0.999662 295.409 35)">Fronta</text><text font-family="Arial,Arial_MSFontService,sans-serif" font-weight="400" font-size="23.9919" transform="matrix(1 0 0 0.999662 364.742 35)">l</text><text font-family="Arial,Arial_MSFontService,sans-serif" font-weight="400" font-size="23.9919" transform="matrix(1 0 0 0.999662 926.409 35)">Trasera</text></g></svg>